<?xml version="1.0" encoding="UTF-8"?>
<svg id="Layer_1" data-name="Layer 1" xmlns="http://www.w3.org/2000/svg" viewBox="0 0 3002.25 853.31">
  <defs>
    <style type="text/css">
      @font-face {
          font-family: 'Gibson-Bold';
          src: url('Gibson-Bold.eot');
          src: url('Gibson-Bold.eot?#iefix') format('embedded-opentype'),
              url('Gibson-Bold.woff') format('woff'),
              url('Gibson-Bold.ttf') format('truetype'),
              url('Gibson-Bold.svg#gibsonregular') format('svg');
          font-weight: normal;
          font-style: normal;
      }

      .cls-1 {
        font-family: 'Gibson-Bold';
        font-size: 486.73px;
        font-weight: 700;
      }

      .cls-1, .cls-2 {
        fill: #7393b3;
      }

      .cls-3 {
        letter-spacing: 0em;
      }
    </style>
  </defs>
  <g>
    <path class="cls-2" d="m446.28,424.67c.92.13,1.85.28,2.8.46l-2.44-3.68c-1.99-3-3.78-6.11-5.36-9.3-1.58,3.2-3.38,6.31-5.36,9.3l-2.44,3.68c.95-.18,1.88-.34,2.8-.46h10Z"/>
    <path class="cls-2" d="m411.94,351.6c-8.07-15-22.29-24.69-39.01-26.56h-.02c-1.91-.21-3.91-.32-5.95-.32h-104.08c-2.21,0-4.4.11-6.5.32-19.95,2.06-36.88,13.49-46.49,31.36-10.64,19.84-9.58,42.92,2.87,61.66l28.19,42.58c14.6,22.01,39.09,35.16,65.5,35.16s50.9-13.15,65.5-35.16l37.56-56.68c10.56-15.93,11.45-35.5,2.42-52.35Zm-76.31,93.23c-14.45,0-26.17-11.73-26.17-26.2s11.73-26.17,26.17-26.17,26.2,11.73,26.2,26.17-11.73,26.2-26.2,26.2Z"/>
    <path class="cls-2" d="m182.13,643.6h-81.31l.08-.21c13.57-33.94,47.28-56.74,83.89-56.74,28.53,0,55.75,13.68,72.84,36.6l.18.23c-18.58-106.12-43.02-145.01-43.28-145.41l-28.18-42.51c-8.07-12.19-13.13-25.81-14.83-39.85l-.06.05-.09-1.31c-.26-2.41-.42-4.84-.48-7.27v-.15s-3.65-56.36-3.65-56.36c-7.17,10.1-14.52,20.38-21.91,30.31-30.1,40.38-60.2,80.77-90.3,121.16-4.73,6.34-7.32,13.86-7.49,21.77-1.23,57.34,15.17,164.06,20.22,195.4l.04.36c2.01,28.16,14.52,54.32,35.21,73.67,20.79,19.44,47.93,30.15,76.41,30.15s53.19-9.79,73.55-27.57c18.97-16.56,31.78-38.96,36.41-63.49h-22.24c-14.31,32.79-47.06,54.63-82.35,54.63-37.73,0-70.85-22.47-84.37-57.24h82l22.33-32.47-22.63-33.76Z"/>
    <path class="cls-2" d="m775.03,697.29c3.52,0,5.46,1.93,7.02,3.47,1.6,1.6,2.17,4.29,2.17,5.72v2.63l-.28.72c-13.52,34.77-46.64,57.24-84.37,57.24-35.3,0-68.05-21.84-82.36-54.63h-22.23c4.63,24.53,17.44,46.93,36.41,63.49,20.36,17.78,46.49,27.57,73.55,27.57,28.48,0,55.62-10.71,76.41-30.15,20.69-19.35,33.2-45.51,35.21-73.67l.04-.36c5.05-31.34,21.45-138.06,20.22-195.4h0c-.17-7.91-2.76-15.44-7.48-21.77-10.86-14.57-22.12-29.29-33.01-43.53-17.69-23.13-35.98-47.05-53.1-71.03-6.9-9.68-13.67-19.46-20.83-29.83-2.29-3.31-4.59-6.63-6.9-9.97l-3.83,59.4c-.06,2.33-.21,4.65-.45,6.96l-.1,1.62-.07-.07c-1.71,14.05-6.76,27.68-14.83,39.85-.28.42-27.47,41.45-28.19,42.54-.59.93-25.3,40.86-43.8,148.51l2.53-3.37c17.07-22.91,44.3-36.59,72.83-36.59,36.61,0,70.32,22.8,83.89,56.74l.08.21c.81,2.39.91,6.02-1.44,8.38-1.15,1.15-3.52,3.52-7.07,3.52"/>
    <path class="cls-2" d="m672.66,356.4c-9.6-17.87-26.54-29.3-46.46-31.34l-.02-.02c-2.08-.21-4.27-.32-6.48-.32h-104.1c-2.04,0-4.04.11-5.95.32-16.74,1.87-30.95,11.56-39.03,26.56-9.03,16.85-8.14,36.42,2.42,52.35l37.56,56.68c14.62,22.01,39.09,35.16,65.5,35.16s50.9-13.15,65.5-35.16l28.21-42.56c12.43-18.78,13.49-41.83,2.85-61.68Zm-126.73,88.42c-14.45,0-26.17-11.73-26.17-26.2s11.73-26.17,26.17-26.17,26.2,11.73,26.2,26.17-11.73,26.2-26.2,26.2Z"/>
    <path class="cls-2" d="m441.28,339.42c.46-.94.94-1.88,1.44-2.8,2.25-4.19,4.84-8.18,7.73-11.91h-18.32c2.86,3.69,5.45,7.68,7.72,11.91.49.92.97,1.85,1.44,2.8Z"/>
    <g>
      <rect class="cls-2" x="433.68" y="49.81" width="14.96" height="243.58"/>
      <path class="cls-2" d="m635.25,115.11c-34.11-34.11-77.33-55.8-124.17-62.81v241.1h168.79c4.69,0,9.12-1.54,12.82-4.47,4.99-3.95,7.85-9.86,7.85-16.2,0-59.54-23.19-115.52-65.29-157.62Z"/>
      <path class="cls-2" d="m371.24,52.8c-45.63,7.49-87.68,28.96-121.02,62.31-42.11,42.11-65.29,98.08-65.29,157.62,0,6.23,2.78,12.07,7.63,16.02h0c3.72,3.04,8.23,4.65,13.03,4.65h165.64V52.8Z"/>
    </g>
    <path class="cls-2" d="m576.1,527.47c-31.97,0-62.19-13.77-83.11-37.82l-.83-.81c-7.12-7.1-19.82-18.02-32.23-25.43-11.49-6.88-25.79-6.88-37.31,0-12.43,7.41-25.11,18.33-32.23,25.43l-.91.89c-20.91,24.01-51.07,37.73-83.03,37.73-13.83,0-27.66-2.63-40.49-7.69.17.74.36,1.59.45,1.83,1.3,4.14,2.55,8.31,3.72,12.45,2.68,9.24,5.16,18.7,7.61,28.87,4.02,16.74,7.27,33.87,10.43,50.42l.45,2.34c1.55,8.18,2.7,16.53,3.82,24.62,1.34,9.71,2.72,19.78,4.82,29.45.96,4.4,2.17,9.05,4.42,13.05,3.61,6.39,11.66,11.37,23.94,14.79,37.43,10.39,77.76-.81,105.21-29.21l11.34-11.75,11.37,11.75c27.47,28.41,67.77,39.6,105.21,29.21,7.78-2.17,15.76-4.74,20.2-10.39,4.76-6.06,6.18-14.55,7.41-22.05.85-5.16,1.7-10.3,2.55-15.47,7.05-42.94,14.32-87.32,27.83-129.94-12.87,5.08-26.75,7.73-40.64,7.73Zm-231.11,84.28c-4.09,4.09-10.71,4.09-14.8,0-4.09-4.09-4.09-10.71,0-14.8,4.09-4.09,10.71-4.09,14.8,0,4.09,4.09,4.09,10.71,0,14.8Zm28.9,23.56c-4.09,4.09-10.71,4.09-14.79,0-4.09-4.09-4.09-10.71,0-14.8,4.09-4.09,10.71-4.09,14.79,0,4.09,4.09,4.09,10.71,0,14.8Zm8.03-37.62c-4.09,4.09-10.71,4.09-14.8,0-4.09-4.09-4.09-10.71,0-14.8,4.09-4.09,10.71-4.09,14.8,0,4.09,4.09,4.09,10.71,0,14.8Zm111.75-74.34l-52.39,63.06-52.39-63.06c-4.21-5.06-5.08-11.92-2.27-17.89,2.78-5.97,8.63-9.67,15.21-9.67h78.91c6.59,0,12.43,3.7,15.23,9.67,2.78,5.97,1.91,12.83-2.29,17.89Zm6.97,59.54c4.09-4.09,10.71-4.09,14.8,0,4.09,4.09,4.09,10.71,0,14.8-4.09,4.09-10.71,4.09-14.8,0-4.09-4.09-4.09-10.71,0-14.8Zm22.83,52.42c-4.09,4.09-10.71,4.09-14.8,0-4.09-4.09-4.09-10.71,0-14.8,4.09-4.09,10.71-4.09,14.8,0,4.09,4.09,4.09,10.71,0,14.8Zm28.9-23.56c-4.09,4.09-10.71,4.09-14.8,0-4.09-4.09-4.09-10.71,0-14.8,4.09-4.09,10.71-4.09,14.8,0,4.09,4.09,4.09,10.71,0,14.8Z"/>
    <polyline class="cls-2" points="784.29 710.61 702.29 710.61 679.95 678.14 702.58 644.38 783.89 644.38"/>
  </g>
  <text font-family='Gibson-Bold' class="cls-1" transform="translate(918.03 606.66)"><tspan x="0" y="0">SIDE</tspan><tspan class="cls-3" x="1068.85" y="0">C</tspan><tspan x="1376.95" y="0">AR</tspan></text>
</svg>